<svg xmlns="http://www.w3.org/2000/svg" xmlns:xlink="http://www.w3.org/1999/xlink" viewBox="0 0 95.481 75.93303609114274" height="75.93303609114274" width="95.481" data-background-color="#c4997c" preserveAspectRatio="xMidYMid meet" id="tight-bounds"><g><svg viewBox="0 0 95.481 75.93303609114274" height="75.93303609114274" width="95.481"><g><svg viewBox="0 0 95.481 75.93303609114274" height="75.93303609114274" width="95.481"><g id="textblocktransform"><svg viewBox="0 0 95.481 75.93303609114274" height="75.93303609114274" width="95.481" id="textblock"><g><svg viewBox="0 0 95.481 75.93303609114274" height="75.93303609114274" width="95.481"><g><svg viewBox="0 0 95.481 75.93303609114274" height="75.93303609114274" width="95.481"><g><svg xmlns="http://www.w3.org/2000/svg" xmlns:xlink="http://www.w3.org/1999/xlink" version="1.1" x="0" y="0" viewBox="1.186669111251831 13.030207633972168 92.83975219726562 73.83253479003906" enable-background="new 0 0 100 100" xml:space="preserve" height="75.93303609114274" width="95.481" class="icon-icon-0" data-fill-palette-color="accent" id="icon-0"><g fill="#1f2345" data-fill-palette-color="accent"><polygon points="40.854,46.124 8.556,35.455 17.652,41.894 49.951,52.562  " fill="#1f2345" data-fill-palette-color="accent"/><polygon points="18.14,71.511 54.285,83.45 54.285,55.799 18.09,43.842  " fill="#1f2345" data-fill-palette-color="accent"/><path d="M41.513 44.537A1 1 0 0 1 41.739 44.651L43.037 45.57V31.485L26.056 39.431z" fill="#1f2345" data-fill-palette-color="accent"/><polygon points="55.998,55.707 55.998,83.29 81.008,71.586 80.985,44.014  " fill="#1f2345" data-fill-palette-color="accent"/><polygon points="58.964,52.427 81.337,41.958 87.934,35.134 65.562,45.603  " fill="#1f2345" data-fill-palette-color="accent"/><path d="M64.692 44.118L72.443 40.491 44.75 31.344V46.782L55.015 54.047 64.439 44.298A0.9 0.9 0 0 1 64.692 44.118" fill="#1f2345" data-fill-palette-color="accent"/><path d="M93.613 31.095A2.23 2.23 0 0 0 92.359 30.234L93.168 28.955A2.22 2.22 0 0 0 93.383 27.014 2.21 2.21 0 0 0 91.985 25.65L54.127 13.145A2.214 2.214 0 0 0 51.547 14.069L43.839 26.253 35.51 15.177A2.24 2.24 0 0 0 33.729 14.288C33.402 14.288 33.084 14.359 32.786 14.498L6.063 27.003A2.22 2.22 0 0 0 4.845 28.482 2.22 2.22 0 0 0 5.227 30.359L5.97 31.347 4.107 30.732A2.2 2.2 0 0 0 3.41 30.62C2.564 30.62 1.802 31.089 1.422 31.843A2.24 2.24 0 0 0 2.123 34.664L15.006 43.783 15.058 72.135C15.059 73.096 15.674 73.945 16.586 74.246L54.443 86.752A2.24 2.24 0 0 0 56.085 86.653L82.808 74.148A2.24 2.24 0 0 0 84.091 72.128L84.068 43.591 93.402 33.936A2.23 2.23 0 0 0 93.613 31.095M92.394 32.984L82.698 43.014 82.721 72.129A0.86 0.86 0 0 1 82.228 72.906L55.506 85.411C55.501 85.414 55.494 85.412 55.489 85.415A0.85 0.85 0 0 1 54.872 85.448L17.017 72.944A0.855 0.855 0 0 1 16.429 72.132L16.376 43.089 2.892 33.545A0.857 0.857 0 0 1 3.655 32.032L9.701 34.029 6.322 29.535A0.85 0.85 0 0 1 6.176 28.813 0.85 0.85 0 0 1 6.644 28.244L33.367 15.739A0.855 0.855 0 0 1 34.414 16L43.936 28.662 52.706 14.801A0.855 0.855 0 0 1 53.698 14.446L91.555 26.95A0.85 0.85 0 0 1 92.092 27.475 0.85 0.85 0 0 1 92.01 28.222L89.212 32.645 91.415 31.614A0.856 0.856 0 0 1 92.394 32.984" fill="#1f2345" data-fill-palette-color="accent"/></g></svg></g></svg></g></svg></g></svg></g></svg></g></svg></g><defs/></svg>