<svg xmlns="http://www.w3.org/2000/svg" width="112.456" height="112.456" viewBox="0 0 112.456 112.456">
  <g id="Groupe_83" data-name="Groupe 83" transform="translate(1201.66 -5708.474)">
    <circle id="Ellipse_31" data-name="Ellipse 31" cx="56.228" cy="56.228" r="56.228" transform="translate(-1201.66 5708.474)" fill="#ededed"/>
    <path id="Tracé_170" data-name="Tracé 170" d="M256.861,47.224V31.207a2.884,2.884,0,0,1,3.159-3.145,2.838,2.838,0,0,1,2.739,2.837c.028,3.019.014,6.038.014,9.043,0,4.5-.028,9,0,13.5a12.765,12.765,0,0,1-5.437,10.9c-2.837,2.11-5.647,4.249-8.47,6.373-.182.14-.363.294-.657.531v7.212h-13.18c-.014-.321-.056-.6-.056-.867,0-4.053-.028-8.106,0-12.174A8.3,8.3,0,0,1,239.222,58c4.836-2.893,9.728-5.675,14.578-8.554a2.8,2.8,0,1,1,2.823,4.822c-1.761,1.062-3.536,2.069-5.311,3.1-1.076.629-2.152,1.244-3.229,1.873a2.585,2.585,0,0,0-.517.349.743.743,0,0,0-.182,1.048,1.43,1.43,0,0,0,.908.391c.224.028.475-.168.7-.307q4.214-2.432,8.414-4.892A4.567,4.567,0,0,0,259.81,51a4.439,4.439,0,0,0-2.152-3.271c-.238-.154-.489-.294-.839-.489Z" transform="translate(-1377.065 5718.945)" fill="none" stroke="#575656" stroke-miterlimit="10" stroke-width="0.73"/>
    <path id="Tracé_171" data-name="Tracé 171" d="M216.429,47.239c-.21.14-.377.252-.559.349a4.626,4.626,0,0,0-.056,8.162c2.851,1.705,5.744,3.354,8.61,5.018.2.112.447.294.629.252.321-.056.755-.2.867-.433a1.344,1.344,0,0,0-.182-.978c-.126-.224-.447-.335-.7-.475-2.753-1.607-5.521-3.2-8.274-4.822a2.918,2.918,0,0,1-1.006-4.445,3.06,3.06,0,0,1,3.061-.727c.657.349,1.328.7,1.985,1.076,4.291,2.488,8.554,5.018,12.858,7.491a9.046,9.046,0,0,1,4.57,6.359,5.988,5.988,0,0,1,.084,1.006V77.708c0,.224-.028.461-.056.755H225.109v-7.24c-1.006-.755-1.915-1.454-2.823-2.138-2.236-1.691-4.5-3.354-6.723-5.06a12.221,12.221,0,0,1-5.018-10.007c-.042-7.673,0-15.346,0-23.005a2.836,2.836,0,0,1,2.083-2.851,2.909,2.909,0,0,1,3.41,1.37,3.808,3.808,0,0,1,.391,1.565c.028,5.171.028,10.343.028,15.528a5.339,5.339,0,0,1-.056.6Z" transform="translate(-1386.782 5718.945)" fill="none" stroke="#575656" stroke-miterlimit="10" stroke-width="0.73"/>
    <path id="Tracé_172" data-name="Tracé 172" d="M255.96,26.705c-6.094,3.48-12.076,6.876-18.128,10.329-5.968-3.466-11.922-6.9-18-10.441.419-.266.7-.461.992-.629q8.218-4.7,16.436-9.392a1.224,1.224,0,0,1,1.384-.07q8.449,4.948,16.9,9.867c.084.042.154.112.433.307Z" transform="translate(-1383.082 5714.278)" fill="#ca9e67"/>
    <path id="Tracé_173" data-name="Tracé 173" d="M251.36,25.1V46.009c-5.926,3.452-11.824,6.876-17.89,10.4V35.415c5.87-3.382,11.782-6.793,17.89-10.315Z" transform="translate(-1377.658 5717.771)" fill="#ca9e67"/>
    <path id="Tracé_174" data-name="Tracé 174" d="M236.9,56.378c-6.094-3.536-11.992-6.96-17.89-10.385V25.07c6.038,3.48,11.936,6.89,17.89,10.343Z" transform="translate(-1383.408 5717.758)" fill="#ca9e67"/>
  </g>
</svg>
