<svg xmlns="http://www.w3.org/2000/svg" width="112.456" height="112.456" viewBox="0 0 112.456 112.456">
  <g id="Groupe_84" data-name="Groupe 84" transform="translate(955.183 -5708.474)">
    <circle id="Ellipse_32" data-name="Ellipse 32" cx="56.228" cy="56.228" r="56.228" transform="translate(-955.183 5708.474)" fill="#ededed"/>
    <circle id="Ellipse_33" data-name="Ellipse 33" cx="28.456" cy="28.456" r="28.456" transform="translate(-917.935 5724.044)" fill="none" stroke="#575656" stroke-linecap="round" stroke-miterlimit="10" stroke-width="0.97"/>
    <path id="Tracé_211" data-name="Tracé 211" d="M415.71,18.42V37.386l7.464-12.872" transform="translate(-1305.189 5715.114)" fill="none" stroke="#575656" stroke-linecap="round" stroke-linejoin="round" stroke-width="0.97"/>
    <rect id="Rectangle_224" data-name="Rectangle 224" width="1.565" height="3.145" transform="translate(-882.193 5776.686) rotate(165.31)" fill="#575656"/>
    <rect id="Rectangle_225" data-name="Rectangle 225" width="1.565" height="3.145" transform="translate(-894.255 5777.263) rotate(-167)" fill="#575656"/>
    <rect id="Rectangle_228" data-name="Rectangle 228" width="1.565" height="3.145" transform="translate(-914.484 5750.603) rotate(-83.92)" fill="#575656"/>
    <rect id="Rectangle_229" data-name="Rectangle 229" width="1.565" height="3.145" transform="translate(-910.751 5739.109) rotate(-56.23)" fill="#575656"/>
    <rect id="Rectangle_230" data-name="Rectangle 230" width="1.565" height="3.145" transform="translate(-902.04 5730.765) rotate(-28.53)" fill="#575656"/>
    <rect id="Rectangle_231" data-name="Rectangle 231" width="1.565" height="3.145" transform="translate(-890.5 5727.335) rotate(-0.84)" fill="#575656"/>
    <rect id="Rectangle_232" data-name="Rectangle 232" width="1.565" height="3.145" transform="translate(-878.645 5729.664) rotate(26.85)" fill="#575656"/>
    <rect id="Rectangle_233" data-name="Rectangle 233" width="1.565" height="3.145" transform="translate(-869.238 5737.22) rotate(54.54)" fill="#575656"/>
    <rect id="Rectangle_234" data-name="Rectangle 234" width="1.565" height="3.145" transform="translate(-864.53 5748.31) rotate(82.24)" fill="#575656"/>
    <rect id="Rectangle_235" data-name="Rectangle 235" width="1.565" height="3.145" transform="translate(-865.396 5760.322) rotate(109.93)" fill="#575656"/>
    <rect id="Rectangle_236" data-name="Rectangle 236" width="1.565" height="3.145" transform="translate(-871.776 5770.558) rotate(137.62)" fill="#575656"/>
    <path id="Tracé_212" data-name="Tracé 212" d="M373.57,32.87h7.645a2.487,2.487,0,0,1,2.4,1.8L392.4,64.136a1,1,0,0,0,.95.713h27.115" transform="translate(-1321.946 5720.86)" fill="none" stroke="#ca9e67" stroke-linecap="round" stroke-miterlimit="10" stroke-width="2.09"/>
    <path id="Tracé_213" data-name="Tracé 213" d="M387.618,57.251H409.45a3.372,3.372,0,0,0,3.2-2.292l5.073-14.829a1.859,1.859,0,0,0-1.761-2.46h-34.1l5.758,19.6Z" transform="translate(-1318.649 5722.769)" fill="#ca9e67" stroke="#ca9e67" stroke-linecap="round" stroke-miterlimit="10" stroke-width="2.09"/>
    <circle id="Ellipse_34" data-name="Ellipse 34" cx="3.648" cy="3.648" r="3.648" transform="translate(-929.466 5789.93)" fill="none" stroke="#ca9e67" stroke-linecap="round" stroke-miterlimit="10" stroke-width="1.9"/>
    <circle id="Ellipse_35" data-name="Ellipse 35" cx="3.648" cy="3.648" r="3.648" transform="translate(-910.192 5789.93)" fill="none" stroke="#ca9e67" stroke-linecap="round" stroke-miterlimit="10" stroke-width="1.9"/>
  </g>
</svg>
