<svg xmlns="http://www.w3.org/2000/svg" width="112.456" height="112.456" viewBox="0 0 112.456 112.456">
  <g id="Groupe_85" data-name="Groupe 85" transform="translate(703.618 -5708.474)">
    <circle id="Ellipse_36" data-name="Ellipse 36" cx="56.228" cy="56.228" r="56.228" transform="translate(-703.618 5708.474)" fill="#ededed"/>
    <path id="Tracé_268" data-name="Tracé 268" d="M603.57,41.735c-6.094,3.48-12.076,6.876-18.128,10.329-5.968-3.466-11.922-6.9-18-10.441.419-.266.7-.461.992-.629q8.218-4.7,16.437-9.392a1.224,1.224,0,0,1,1.384-.07q8.449,4.948,16.9,9.867c.084.042.154.112.433.307Z" transform="translate(-1244.852 5720.255)" fill="#ca9e67"/>
    <path id="Tracé_269" data-name="Tracé 269" d="M598.97,40.12V61.029c-5.926,3.452-11.824,6.876-17.89,10.4V50.435c5.87-3.382,11.782-6.793,17.89-10.315Z" transform="translate(-1239.427 5723.743)" fill="#ca9e67"/>
    <path id="Tracé_270" data-name="Tracé 270" d="M584.51,71.408c-6.094-3.536-11.992-6.96-17.89-10.385V40.1c6.038,3.48,11.936,6.89,17.89,10.343Z" transform="translate(-1245.178 5723.735)" fill="#ca9e67"/>
    <path id="Tracé_271" data-name="Tracé 271" d="M613.214,25.45a7.352,7.352,0,1,1-7.352-7.366,7.352,7.352,0,0,1,7.352,7.366m5.7,1.216a13.072,13.072,0,1,0-26.136,0c0,10.832,13.012,24.277,13.012,24.277s13.124-13.39,13.124-24.277" transform="translate(-1234.775 5713.074)" fill="none" stroke="#575656" stroke-miterlimit="10" stroke-width="0.97"/>
    <path id="Tracé_272" data-name="Tracé 272" d="M573.17,35.3V19.73h22.013" transform="translate(-1242.573 5715.635)" fill="none" stroke="#575656" stroke-miterlimit="10" stroke-width="1.45"/>
    <path id="Tracé_273" data-name="Tracé 273" d="M584.55,15.27l6.108,6.094-6.108,6.094" transform="translate(-1238.048 5713.861)" fill="none" stroke="#575656" stroke-miterlimit="10" stroke-width="1.45"/>
    <path id="Tracé_274" data-name="Tracé 274" d="M590.69,66.279h15.57v-22" transform="translate(-1235.606 5725.397)" fill="none" stroke="#575656" stroke-miterlimit="10" stroke-width="1.45"/>
  </g>
</svg>
