<svg xmlns="http://www.w3.org/2000/svg" width="112.456" height="112.456" viewBox="0 0 112.456 112.456">
  <g id="Groupe_87" data-name="Groupe 87" transform="translate(196.84 -5707.789)">
    <circle id="Ellipse_39" data-name="Ellipse 39" cx="56.228" cy="56.228" r="56.228" transform="translate(-196.84 5707.789)" fill="#ededed"/>
    <path id="Tracé_392" data-name="Tracé 392" d="M947.637,13.57c-12.313,0-22.307,7.659-22.307,17.093,0,5.269,3.1,9.965,7.981,13.11l-5.423,7.967L938.594,46.3a28.259,28.259,0,0,0,9.043,1.468c12.313,0,22.307-7.659,22.307-17.093s-9.979-17.093-22.307-17.093Z" transform="translate(-1102.533 5713.186)" fill="none" stroke="#575656" stroke-miterlimit="10" stroke-width="1.06"/>
    <circle id="Ellipse_40" data-name="Ellipse 40" cx="8.805" cy="8.805" r="8.805" transform="translate(-149.417 5722.017)" fill="#575656"/>
    <path id="Tracé_393" data-name="Tracé 393" d="M951.626,15.3H951.6l-1.915.853-.433-2L952,12.94h2.208v9.686h-2.6V15.3Z" transform="translate(-1093.021 5712.935)" fill="#ededed"/>
    <path id="Tracé_394" data-name="Tracé 394" d="M937.309,30.843a1.971,1.971,0,1,1,.028,0h-.014Zm6.345,0a1.971,1.971,0,1,1,.028,0h-.014Zm6.331,0a1.971,1.971,0,1,1,.028,0H950Z" transform="translate(-1098.536 5718.47)" fill="#575656"/>
    <path id="Tracé_395" data-name="Tracé 395" d="M985.816,35.38H943.1a3.7,3.7,0,0,0-3.7,3.7V64.857a3.7,3.7,0,0,0,3.7,3.7h42.713a3.7,3.7,0,0,0,3.7-3.7V39.084a3.7,3.7,0,0,0-3.7-3.7Zm-.349,24.207a1.224,1.224,0,0,1-.978.489,1.288,1.288,0,0,1-.727-.238L971.8,51.006l-7.38,4.528-6.695-4.109-11.391,8.4a1.19,1.19,0,0,1-.727.238,1.2,1.2,0,0,1-.978-.489,1.223,1.223,0,0,1,.252-1.705l10.594-7.827L944.823,43.5a1.22,1.22,0,1,1,1.272-2.083L958.268,48.9h0l6.136,3.76,18.309-11.237a1.22,1.22,0,0,1,1.272,2.083l-9.965,6.122,11.167,8.246a1.211,1.211,0,0,1,.252,1.705Z" transform="translate(-1096.938 5721.858)" fill="#ca9e67"/>
    <circle id="Ellipse_42" data-name="Ellipse 42" cx="8.805" cy="8.805" r="8.805" transform="translate(-118.934 5751.145)" fill="#575656"/>
    <path id="Tracé_396" data-name="Tracé 396" d="M973.436,36.142h-.028l-1.915.853-.433-2,2.753-1.216h2.208v9.686h-2.6V36.142Z" transform="translate(-1084.348 5721.222)" fill="#ededed"/>
  </g>
</svg>
